<mxfile>
    <diagram name="Page-1" id="e7e014a7-5840-1c2e-5031-d8a46d1fe8dd">
        <mxGraphModel dx="600" dy="575" grid="0" gridSize="10" guides="1" tooltips="1" connect="1" arrows="1" fold="1" page="1" pageScale="1" pageWidth="1169" pageHeight="826" background="none" math="0" shadow="0">
            <root>
                <mxCell id="0"/>
                <mxCell id="1" parent="0"/>
                <mxCell id="jg-bdJbGxONM6aFM8Xrk-53" value="" style="edgeStyle=orthogonalEdgeStyle;rounded=0;orthogonalLoop=1;jettySize=auto;html=1;exitX=0.5;exitY=1;exitDx=0;exitDy=0;" parent="1" source="jg-bdJbGxONM6aFM8Xrk-48" target="jg-bdJbGxONM6aFM8Xrk-51" edge="1">
                    <mxGeometry relative="1" as="geometry">
                        <mxPoint x="440" y="182" as="sourcePoint"/>
                    </mxGeometry>
                </mxCell>
                <mxCell id="jg-bdJbGxONM6aFM8Xrk-48" value="INITIAL" style="rounded=1;whiteSpace=wrap;html=1;" parent="1" vertex="1">
                    <mxGeometry x="375" y="86" width="130" height="30" as="geometry"/>
                </mxCell>
                <mxCell id="jg-bdJbGxONM6aFM8Xrk-80" value="" style="edgeStyle=orthogonalEdgeStyle;rounded=0;orthogonalLoop=1;jettySize=auto;html=1;fontColor=#3399FF;" parent="1" source="jg-bdJbGxONM6aFM8Xrk-51" target="jg-bdJbGxONM6aFM8Xrk-79" edge="1">
                    <mxGeometry relative="1" as="geometry"/>
                </mxCell>
                <mxCell id="jg-bdJbGxONM6aFM8Xrk-51" value="" style="rounded=1;whiteSpace=wrap;html=1;" parent="1" vertex="1">
                    <mxGeometry x="400" y="250" width="80" height="30" as="geometry"/>
                </mxCell>
                <mxCell id="jg-bdJbGxONM6aFM8Xrk-79" value="FINAL" style="rounded=1;whiteSpace=wrap;html=1;" parent="1" vertex="1">
                    <mxGeometry x="370" y="340" width="140" height="30" as="geometry"/>
                </mxCell>
                <mxCell id="2" value="the system loads the borrow's information" style="text;html=1;strokeColor=none;fillColor=none;align=center;verticalAlign=middle;whiteSpace=wrap;rounded=0;fontColor=#FFFFFF;" parent="1" vertex="1">
                    <mxGeometry x="342" y="186" width="190" height="20" as="geometry"/>
                </mxCell>
                <mxCell id="4" value="the system shows all the information loaded" style="text;html=1;strokeColor=none;fillColor=none;align=center;verticalAlign=middle;whiteSpace=wrap;rounded=0;fontColor=#FFFFFF;" parent="1" vertex="1">
                    <mxGeometry x="359" y="295" width="190" height="20" as="geometry"/>
                </mxCell>
            </root>
        </mxGraphModel>
    </diagram>
</mxfile>